<svg height="511pt" viewBox="0 -7 511.99887 511" width="511pt" xmlns="http://www.w3.org/2000/svg"><path d="m454.550781 217.1875c14.160157 0 27.886719-5.453125 38.652344-15.351562 10.75-9.886719 17.347656-23.109376 18.585937-37.234376 1.28125-14.65625-3.304687-28.503906-12.917968-38.996093-9.574219-10.449219-22.898438-16.207031-37.546875-16.207031h-53.605469l4.695312-53.699219c1.28125-14.65625-3.304687-28.503907-12.914062-38.992188-9.574219-10.453125-22.898438-16.207031-37.515625-16.207031-14.160156 0-27.890625 5.449219-38.652344 15.347656-10.75 9.886719-17.351562 23.109375-18.585937 37.234375l-4.933594 56.316407h-63.226562l4.699218-53.703126c1.28125-14.65625-3.304687-28.503906-12.917968-38.988281-9.574219-10.453125-22.898438-16.207031-37.519532-16.207031-14.160156 0-27.886718 5.449219-38.648437 15.347656-10.75 9.886719-17.351563 23.109375-18.585938 37.234375l-4.925781 56.316407h-56.265625c-14.160156 0-27.890625 5.453124-38.652344 15.351562-10.75 9.886719-17.351562 23.109375-18.589843 37.238281-1.28125 14.65625 3.308593 28.503907 12.921874 38.996094 9.574219 10.449219 22.898438 16.203125 37.515626 16.203125h53.636718l-5.542968 63.34375h-56.261719c-14.160157 0-27.886719 5.453125-38.652344 15.351562-10.75 9.882813-17.347656 23.105469-18.585937 37.234376-1.28125 14.65625 3.304687 28.507812 12.917968 38.996093 9.574219 10.449219 22.898438 16.203125 37.515625 16.203125h53.640625l-4.699218 53.699219c-1.28125 14.660156 3.304687 28.507813 12.914062 39 9.578125 10.449219 22.902344 16.203125 37.519531 16.203125 14.160157 0 27.886719-5.449219 38.648438-15.347656 10.75-9.886719 17.355469-23.109375 18.589843-37.238282.007813-.070312.015626-.144531.019532-.21875l4.90625-56.097656h63.230468l-4.695312 53.699219c-1.28125 14.65625 3.304688 28.507813 12.914062 38.996094 9.578126 10.449219 22.902344 16.207031 37.515626 16.207031 14.160156 0 27.890624-5.453125 38.652343-15.351562 10.75-9.886719 17.351563-23.109376 18.589844-37.234376.003906-.046874.007813-.09375.011719-.140624l4.914062-56.175782h56.265625c.136719 0 .269531 0 .40625-.003906 14.015625-.101562 27.582031-5.542969 38.246094-15.347656 10.75-9.886719 17.351563-23.109375 18.585937-37.234375 1.285157-14.65625-3.304687-28.503907-12.917968-38.992188-9.574219-10.453125-22.898438-16.207031-37.546875-16.207031h-53.609375l5.542968-63.347656h56.261719zm-164.167969 0-5.539062 63.34375h-63.230469l5.542969-63.34375zm0 0" fill="#0065a3"/><path d="m454.550781 217.1875c14.160157 0 27.886719-5.453125 38.652344-15.351562 10.75-9.886719 17.347656-23.109376 18.585937-37.234376 1.28125-14.65625-3.304687-28.503906-12.917968-38.996093-9.574219-10.449219-22.898438-16.207031-37.546875-16.207031h-53.605469l4.695312-53.699219c1.28125-14.65625-3.304687-28.503907-12.914062-38.992188-9.574219-10.453125-22.898438-16.207031-37.515625-16.207031-14.160156 0-27.890625 5.449219-38.652344 15.347656-10.75 9.886719-17.351562 23.109375-18.585937 37.234375l-4.933594 56.316407h-43.8125v107.789062h34.386719l-5.542969 63.34375h-28.84375v107.785156l19.414062.003906-4.695312 53.695313c-1.285156 14.660156 3.300781 28.507813 12.914062 38.996094 9.574219 10.453125 22.898438 16.207031 37.515626 16.207031 14.160156 0 27.886718-5.449219 38.652343-15.351562 10.75-9.882813 17.351563-23.105469 18.585938-37.234376.003906-.046874.007812-.09375.011719-.136718l4.917968-56.175782h56.265625c.132813 0 .269531-.003906.40625-.007812 14.015625-.101562 27.582031-5.542969 38.242188-15.347656 10.75-9.882813 17.351562-23.105469 18.589843-37.234375 1.28125-14.65625-3.308593-28.503907-12.917968-38.992188-9.578125-10.453125-22.902344-16.207031-37.550782-16.207031h-53.609374l5.542968-63.34375zm0 0" fill="#005183"/></svg>