<?xml version="1.0" encoding="UTF-8" standalone="no"?>
<!--
  Licensed to the Apache Software Foundation (ASF) under one
  or more contributor license agreements.  See the NOTICE file
  distributed with this work for additional information
  regarding copyright ownership.  The ASF licenses this file
  to you under the Apache License, Version 2.0 (the
  "License"); you may not use this file except in compliance
  with the License.  You may obtain a copy of the License at
  
         http://www.apache.org/licenses/LICENSE-2.0
         
  Unless required by applicable law or agreed to in writing,
  software distributed under the License is distributed on an
  "AS IS" BASIS, WITHOUT WARRANTIES OR CONDITIONS OF ANY
  KIND, either express or implied.  See the License for the
  specific language governing permissions and limitations
  under the License.
-->

<svg
   inkscape:version="1.1.1 (3bf5ae0d25, 2021-09-20)"
   sodipodi:docname="TypeNode.svg"
   id="svg4"
   version="1.1"
   viewBox="0 0 448 512"
   role="img"
   class="svg-inline--fa fa-square fa-w-14"
   data-icon="square"
   data-prefix="far"
   focusable="false"
   aria-hidden="true"
   xmlns:inkscape="http://www.inkscape.org/namespaces/inkscape"
   xmlns:sodipodi="http://sodipodi.sourceforge.net/DTD/sodipodi-0.dtd"
   xmlns="http://www.w3.org/2000/svg"
   xmlns:svg="http://www.w3.org/2000/svg">
  <defs
     id="defs8" />
  <sodipodi:namedview
     inkscape:current-layer="svg4"
     inkscape:window-maximized="0"
     inkscape:window-y="78"
     inkscape:window-x="735"
     inkscape:cy="320.73465"
     inkscape:cx="110.26376"
     inkscape:zoom="1.3921165"
     showgrid="false"
     id="namedview6"
     inkscape:window-height="1163"
     inkscape:window-width="1706"
     inkscape:pageshadow="2"
     inkscape:pageopacity="0"
     guidetolerance="10"
     gridtolerance="10"
     objecttolerance="10"
     borderopacity="1"
     bordercolor="#666666"
     pagecolor="#ffffff"
     inkscape:pagecheckerboard="0" />
  <path
     style="fill:#003f5c;fill-opacity:1"
     id="path2"
     d="M400 32H48C21.5 32 0 53.5 0 80v352c0 26.5 21.5 48 48 48h352c26.5 0 48-21.5 48-48V80c0-26.5-21.5-48-48-48zm-6 400H54c-3.3 0-6-2.7-6-6V86c0-3.3 2.7-6 6-6h340c3.3 0 6 2.7 6 6v340c0 3.3-2.7 6-6 6z"
     fill="currentColor" />
  <path
     id="path869"
     d="m 49.968008,429.6923 -1.561876,-1.66254 V 256.27418 c 0,-94.46556 0.200796,-172.278836 0.446213,-172.918384 1.313879,-3.423912 -7.23172,-3.264671 175.197195,-3.264671 128.3901,0 171.07525,0.207079 172.25546,0.835665 0.86295,0.459616 1.9628,1.34855 2.44409,1.975409 0.6821,0.888418 0.8801,39.015681 0.89791,172.903491 l 0.0228,171.76374 -1.48879,1.89271 -1.4888,1.8927 H 224.11106 51.529885 Z"
     style="fill:#d8e3e8;fill-opacity:1;stroke:none;stroke-width:3.59165;stroke-linejoin:round" />
  <text
     xml:space="preserve"
     style="font-style:normal;font-variant:normal;font-weight:normal;font-stretch:normal;font-size:192px;line-height:0.95;font-family:Bahnschrift;-inkscape-font-specification:Bahnschrift;letter-spacing:0px;word-spacing:0px;fill:#003f5c;fill-opacity:1;stroke:none;stroke-width:3.73954"
     x="97.265205"
     y="323.21063"
     id="text857-3"><tspan
       sodipodi:role="line"
       x="97.265205"
       y="323.21063"
       style="font-style:normal;font-variant:normal;font-weight:normal;font-stretch:normal;font-size:192px;font-family:Bahnschrift;-inkscape-font-specification:Bahnschrift;fill:#003f5c;fill-opacity:1;stroke-width:3.73954"
       id="tspan859-3">typ</tspan></text>
</svg>
