<?xml version="1.0" encoding="UTF-8" standalone="no"?>
<svg xmlns="http://www.w3.org/2000/svg" xmlns:xlink="http://www.w3.org/1999/xlink" contentStyleType="text/css" height="363px" preserveAspectRatio="none" style="width:521px;height:363px;background:#FFFFFF;" version="1.1" viewBox="0 0 521 363" width="521px" zoomAndPan="magnify"><defs/><g><!--MD5=[72d98c177ab61db9e7c8297223ca59d5]
class PARENT--><g id="elem_PARENT"><rect codeLine="3" fill="#F1F1F1" height="165.5995" id="PARENT" rx="2.5" ry="2.5" style="stroke:#181818;stroke-width:0.5;" width="507" x="7" y="7"/><ellipse cx="183.75" cy="23" fill="#ADD1B2" rx="11" ry="11" style="stroke:#181818;stroke-width:1.0;"/><path d="M183.1094,26.7813 Q183.9063,26.7813 184.4688,26.5938 Q185.0469,26.3906 185.2813,26.1719 Q185.5313,25.9375 185.7656,25.75 Q186.0156,25.5469 186.2344,25.5469 Q186.5781,25.5469 186.8281,25.8125 Q187.0938,26.0625 187.0938,26.3906 Q187.0938,27.125 185.9219,27.8125 Q184.7656,28.4844 183.0625,28.4844 Q180.9063,28.4844 179.4844,27.2188 Q178.0625,25.9531 178.0625,24.0156 L178.0625,22.8906 Q178.0625,20.8594 179.3906,19.4844 Q180.7188,18.0938 182.6875,18.0938 Q183.875,18.0938 185.0938,18.6719 L185.2656,18.75 Q185.5625,18.3438 185.9844,18.3438 Q186.4688,18.3438 186.6406,18.6406 Q186.8281,18.9219 186.8281,19.4688 L186.8281,20.8906 Q186.8281,22.0156 185.9844,22.0156 Q185.6719,22.0156 185.4688,21.8438 Q185.2813,21.6719 185.2344,21.5313 Q185.2031,21.375 185.1563,21.1094 Q185.0469,20.5938 184.5313,20.2813 Q184.0156,19.9688 183.5625,19.8906 Q183.125,19.7969 182.75,19.7969 Q181.4688,19.7969 180.6094,20.6719 Q179.7656,21.5469 179.7656,22.8906 L179.7656,23.9844 Q179.7656,25.2656 180.6719,26.0313 Q181.5781,26.7813 183.1094,26.7813 Z " fill="#000000"/><text fill="#000000" font-family="sans-serif" font-size="14" lengthAdjust="spacing" textLength="145" x="204.25" y="28.6">ActionAssociateWithVm</text><line style="stroke:#181818;stroke-width:0.5;" x1="8" x2="513" y1="39" y2="39"/><text fill="#000000" font-family="sans-serif" font-size="14" lengthAdjust="spacing" textLength="63" x="13" y="56.9999">String text</text><line style="stroke:#181818;stroke-width:0.5;" x1="8" x2="513" y1="63.7999" y2="63.7999"/><text fill="#000000" font-family="sans-serif" font-size="14" lengthAdjust="spacing" textLength="286" x="13" y="81.7999">addChild(..) // factory, associate with 'children'</text><text fill="#000000" font-family="sans-serif" font-size="14" lengthAdjust="spacing" textLength="433" x="13" y="98.5998">removeChild(..) // single choice from 'children', associate with 'children'</text><text fill="#000000" font-family="sans-serif" font-size="14" lengthAdjust="spacing" textLength="471" x="13" y="115.3997">removeChildren(..) // multiple choices from 'children', associate with 'children'</text><text fill="#000000" font-family="sans-serif" font-size="14" lengthAdjust="spacing" textLength="442" x="13" y="132.1996">makeFavorite(..) // single choice from 'children', associate with 'favorites'</text><text fill="#000000" font-family="sans-serif" font-size="14" lengthAdjust="spacing" textLength="470" x="13" y="148.9996">noLongerFavorite(..) // single choice from 'favorites', associate with 'favorites'</text><text fill="#000000" font-family="sans-serif" font-size="14" lengthAdjust="spacing" textLength="495" x="13" y="165.7995">noLongerFavorites(..) // multiple choices from 'favorites', associate with 'favorites'</text></g><!--MD5=[c5c7a4df0a9594682c323ab0faa750bd]
class CHILD--><g id="elem_CHILD"><rect codeLine="4" fill="#F1F1F1" height="64.7999" id="CHILD" rx="2.5" ry="2.5" style="stroke:#181818;stroke-width:0.5;" width="209" x="156" y="266"/><ellipse cx="171" cy="282" fill="#ADD1B2" rx="11" ry="11" style="stroke:#181818;stroke-width:1.0;"/><path d="M170.3594,285.7813 Q171.1563,285.7813 171.7188,285.5938 Q172.2969,285.3906 172.5313,285.1719 Q172.7813,284.9375 173.0156,284.75 Q173.2656,284.5469 173.4844,284.5469 Q173.8281,284.5469 174.0781,284.8125 Q174.3438,285.0625 174.3438,285.3906 Q174.3438,286.125 173.1719,286.8125 Q172.0156,287.4844 170.3125,287.4844 Q168.1563,287.4844 166.7344,286.2188 Q165.3125,284.9531 165.3125,283.0156 L165.3125,281.8906 Q165.3125,279.8594 166.6406,278.4844 Q167.9688,277.0938 169.9375,277.0938 Q171.125,277.0938 172.3438,277.6719 L172.5156,277.75 Q172.8125,277.3438 173.2344,277.3438 Q173.7188,277.3438 173.8906,277.6406 Q174.0781,277.9219 174.0781,278.4688 L174.0781,279.8906 Q174.0781,281.0156 173.2344,281.0156 Q172.9219,281.0156 172.7188,280.8438 Q172.5313,280.6719 172.4844,280.5313 Q172.4531,280.375 172.4063,280.1094 Q172.2969,279.5938 171.7813,279.2813 Q171.2656,278.9688 170.8125,278.8906 Q170.375,278.7969 170,278.7969 Q168.7188,278.7969 167.8594,279.6719 Q167.0156,280.5469 167.0156,281.8906 L167.0156,282.9844 Q167.0156,284.2656 167.9219,285.0313 Q168.8281,285.7813 170.3594,285.7813 Z " fill="#000000"/><text fill="#000000" font-family="sans-serif" font-size="14" lengthAdjust="spacing" textLength="177" x="185" y="287.6">ActionAssociateWithChildVm</text><line style="stroke:#181818;stroke-width:0.5;" x1="157" x2="364" y1="298" y2="298"/><text fill="#000000" font-family="sans-serif" font-size="14" lengthAdjust="spacing" textLength="74" x="162" y="315.9999">String value</text><line style="stroke:#181818;stroke-width:0.5;" x1="157" x2="364" y1="322.7999" y2="322.7999"/></g><!--MD5=[11a141a097ebd61562901706a2fb5f74]
link PARENT to CHILD--><g id="link_PARENT_CHILD"><path codeLine="16" d="M215.94,173.18 C209.87,193.73 207.75,215.7 214.5,236 C217.48,244.97 222.34,253.68 227.8,261.6 " fill="none" id="PARENT-to-CHILD" style="stroke:#181818;stroke-width:1.0;"/><polygon fill="#181818" points="230.89,265.91,228.8881,256.2667,227.973,261.8491,222.3907,260.9339,230.89,265.91" style="stroke:#181818;stroke-width:1.0;"/><text fill="#000000" font-family="sans-serif" font-size="13" lengthAdjust="spacing" textLength="45" x="215.5" y="217">children</text><text fill="#000000" font-family="sans-serif" font-size="13" lengthAdjust="spacing" textLength="28" x="224" y="232.6">(0..n)</text></g><!--MD5=[11a141a097ebd61562901706a2fb5f74]
link PARENT to CHILD--><g id="link_PARENT_CHILD"><path codeLine="17" d="M265.47,173.06 C266.13,193.61 266.33,215.61 265.5,236 C265.17,244.07 264.6,252.71 263.97,260.9 " fill="none" id="PARENT-to-CHILD-1" style="stroke:#181818;stroke-width:1.0;"/><polygon fill="#181818" points="263.56,265.93,268.2669,257.2787,263.9599,260.946,260.2926,256.6389,263.56,265.93" style="stroke:#181818;stroke-width:1.0;"/><text fill="#000000" font-family="sans-serif" font-size="13" lengthAdjust="spacing" textLength="48" x="266.5" y="217">favorites</text><text fill="#000000" font-family="sans-serif" font-size="13" lengthAdjust="spacing" textLength="28" x="276.5" y="232.6">(0..n)</text></g><rect height="16.7999" style="stroke:#00000000;stroke-width:1.0;fill:none;" width="88" x="209.5" y="337.7999"/><text fill="#000000" font-family="sans-serif" font-size="14" lengthAdjust="spacing" textLength="88" x="209.5" y="351.7999">Demo Classes</text><!--MD5=[a71b852e3b39a82ab0c5a0ad2354d23f]
@startuml
caption Demo Classes

class "ActionAssociateWithVm" as PARENT
class "ActionAssociateWithChildVm" as CHILD

PARENT : addChild(..) // factory, associate with 'children'
PARENT : removeChild(..) // single choice from 'children', associate with 'children'
PARENT : removeChildren(..) // multiple choices from 'children', associate with 'children'
PARENT : makeFavorite(..) // single choice from 'children', associate with 'favorites'
PARENT : noLongerFavorite(..) // single choice from 'favorites', associate with 'favorites'
PARENT : noLongerFavorites(..) // multiple choices from 'favorites', associate with 'favorites'
PARENT : String text

CHILD : String value

PARENT - -> CHILD : "children\n(0..n)"
PARENT - -> CHILD : "favorites\n(0..n)"
@enduml

PlantUML version 1.2022.5(Sat Apr 30 10:55:52 GMT 2022)
(GPL source distribution)
Java Runtime: OpenJDK Runtime Environment
JVM: OpenJDK 64-Bit Server VM
Default Encoding: UTF-8
Language: en
Country: US
--></g></svg>