<?xml version="1.0" encoding="iso-8859-1"?>
<!-- Generator: Adobe Illustrator 19.0.0, SVG Export Plug-In . SVG Version: 6.00 Build 0)  -->
<svg version="1.1" id="Capa_1" xmlns="http://www.w3.org/2000/svg" x="0px" y="0px"
     viewBox="0 0 512 512" style="enable-background:new 0 0 512 512;" xml:space="preserve">
<path style="fill:#4F3F82;" d="M361,195c0,76.8-55.8,105.3-96.599,132.599H263.5c0,0.3-0.3,0.601-0.3,0.601
	c-2.401,1.199-4.799,1.8-7.2,1.8c-2.701,0-5.099-0.901-7.5-2.401h-0.901C207.4,300.599,151,272.1,151,195c0-8.401,6.599-15,15-15
	s15,6.599,15,15c0,32.399,16.199,62.699,43.2,80.7l16.8,11.4V165c0-8.401,6.599-15,15-15s15,6.599,15,15v122.1l16.8-11.4
	c27.001-18.001,43.2-48.301,43.2-80.7c0-8.401,6.599-15,15-15S361,186.599,361,195z"/>
<path style="fill:#3B2C68;" d="M361,195c0,76.8-55.8,105.3-96.599,132.599H263.5c0,0.3-0.3,0.601-0.3,0.601
	c-2.401,1.199-4.799,1.8-7.2,1.8V150c8.401,0,15,6.599,15,15v122.1l16.8-11.4c27.001-18.001,43.2-48.301,43.2-80.7
	c0-8.401,6.599-15,15-15S361,186.599,361,195z"/>
<path style="fill:#FC1A40;" d="M346,360H166c-8.401,0-15,6.599-15,15v122c0,8.399,6.599,15,15,15h180c8.401,0,15-6.601,15-15V375
	C361,366.599,354.401,360,346,360z"/>
<path style="fill:#C60034;" d="M361,375v122c0,8.399-6.599,15-15,15h-90V360h90C354.401,360,361,366.599,361,375z"/>
<path style="fill:#FF3E75;" d="M376,300H136c-8.401,0-15,6.599-15,15v60c0,8.399,6.599,15,15,15h240c8.401,0,15-6.601,15-15v-60
	C391,306.599,384.401,300,376,300z"/>
<path style="fill:#FC1A40;" d="M391,315v60c0,8.399-6.599,15-15,15H256v-90h120C384.401,300,391,306.599,391,315z"/>
<path style="fill:#FCBF29;" d="M301,300h-90c0,65.204,0,136.894,0,212h90C301,469.966,301,342.439,301,300z"/>
<path style="fill:#FE9923;" d="M301,300h-45c0,65.204,0,136.894,0,212h45C301,469.966,301,342.439,301,300z"/>
<path style="fill:#FEDB41;" d="M301,300h-90c0,27.681,0,58.115,0,90h90C301,372.155,301,318.017,301,300z"/>
<path style="fill:#FCBF29;" d="M301,300h-45c0,27.681,0,58.115,0,90h45C301,372.155,301,318.017,301,300z"/>
<path style="fill:#FF5FA8;" d="M166,210c-41.353,0-75-40.371-75-90s33.647-90,75-90c16.553,0,32.227,6.284,45.322,18.193
	c4.703,4.26,26.237,100.077,23.555,107.578C223.026,188.716,196,210,166,210z"/>
<path style="fill:#FEDB41;" d="M256,0c-41.4,0-75,40.499-75,90c0,49.499,33.6,90,75,90s75-40.501,75-90C331,40.499,297.4,0,256,0z"
	/>
<path style="fill:#FF3E75;" d="M346,210c-30,0-57.026-21.284-68.877-54.229c-0.938-2.622-1.128-5.464-0.542-8.203
	c1.62-7.591,18.367-94.186,24.097-99.375C313.773,36.284,329.447,30,346,30c41.353,0,75,40.371,75,90S387.353,210,346,210z"/>
<path style="fill:#FCBF29;" d="M331,90c0,49.499-33.6,90-75,90V0C297.4,0,331,40.499,331,90z"/>
<g>
</g>
<g>
</g>
<g>
</g>
<g>
</g>
<g>
</g>
<g>
</g>
<g>
</g>
<g>
</g>
<g>
</g>
<g>
</g>
<g>
</g>
<g>
</g>
<g>
</g>
<g>
</g>
<g>
</g>
</svg>
