<?xml version="1.0" encoding="iso-8859-1"?>
<!-- Generator: Adobe Illustrator 19.0.0, SVG Export Plug-In . SVG Version: 6.00 Build 0)  -->
<svg version="1.1" id="Capa_1" xmlns="http://www.w3.org/2000/svg" xmlns:xlink="http://www.w3.org/1999/xlink" x="0px" y="0px"
	 viewBox="0 0 58 58" style="enable-background:new 0 0 58 58;" xml:space="preserve">
<path style="fill:#EFCE4A;" d="M55.981,54.5H2.019C0.904,54.5,0,53.596,0,52.481V20.5h58v31.981C58,53.596,57.096,54.5,55.981,54.5z
	"/>
<path style="fill:#EBBA16;" d="M26.019,11.5V5.519C26.019,4.404,25.115,3.5,24,3.5H2.019C0.904,3.5,0,4.404,0,5.519V10.5v10h58
	v-6.981c0-1.115-0.904-2.019-2.019-2.019H26.019z"/>
<g>
	<path style="fill:#EB7937;" d="M18,32.5h14c0.552,0,1-0.447,1-1s-0.448-1-1-1H18c-0.552,0-1,0.447-1,1S17.448,32.5,18,32.5z"/>
	<path style="fill:#EB7937;" d="M18,38.5h22c0.552,0,1-0.447,1-1s-0.448-1-1-1H18c-0.552,0-1,0.447-1,1S17.448,38.5,18,38.5z"/>
	<path style="fill:#EB7937;" d="M40,42.5H18c-0.552,0-1,0.447-1,1s0.448,1,1,1h22c0.552,0,1-0.447,1-1S40.552,42.5,40,42.5z"/>
</g>
<g>
</g>
<g>
</g>
<g>
</g>
<g>
</g>
<g>
</g>
<g>
</g>
<g>
</g>
<g>
</g>
<g>
</g>
<g>
</g>
<g>
</g>
<g>
</g>
<g>
</g>
<g>
</g>
<g>
</g>
</svg>
