<svg width="605" height="449" xmlns="http://www.w3.org/2000/svg" xmlns:xlink="http://www.w3.org/1999/xlink" overflow="hidden"><defs><clipPath id="clip0"><rect x="0" y="0" width="605" height="449"/></clipPath></defs><g clip-path="url(#clip0)"><rect x="0" y="0" width="605" height="449.418" fill="#FFFFFF"/><rect x="0" y="302.608" width="106" height="146.81" fill="#7A263A"/><rect x="0" y="0" width="106" height="302.608" fill="#EEB4B3"/><rect x="106" y="302.608" width="499" height="146.81" fill="#5AB1BB"/><text fill="#FFFFFF" font-family="Android Insomnia,Android Insomnia_MSFontService,sans-serif" font-weight="700" font-size="117" transform="matrix(-1.83697e-16 -0.997417 1.00129 -1.8346e-16 97.9424 303)">sf</text><rect x="106" y="0" width="499" height="302.608" fill="#FEC601"/><text fill="#FFFFFF" font-family="Android Insomnia,Android Insomnia_MSFontService,sans-serif" font-weight="700" font-size="117" transform="matrix(1 0 0 0.998708 32.2675 368)">causeway</text><rect x="104" y="0" width="2.00005" height="449.418" fill="#FFFFFF"/><rect x="0" y="0" width="1.99747" height="604.218" fill="#FFFFFF" transform="matrix(1.83935e-16 1 1.00129 -1.83697e-16 1.00003 301.61)"/><rect x="0" y="0" width="5.00003" height="449.418" fill="#FFFFFF"/><rect x="601" y="0" width="5" height="449.418" fill="#FFFFFF"/><rect x="2" y="5.24521e-05" width="604" height="4.99356" fill="#FFFFFF"/><rect x="-5.25224e-05" y="445.424" width="605" height="3.99484" fill="#FFFFFF"/></g></svg>