<svg width="605" height="449" xmlns="http://www.w3.org/2000/svg" xmlns:xlink="http://www.w3.org/1999/xlink" overflow="hidden"><defs><clipPath id="clip0"><rect x="0" y="0" width="605" height="449"/></clipPath></defs><g clip-path="url(#clip0)"><rect x="0" y="0" width="605" height="449.418" fill="#FFFFFF"/><path d="M0 15.14C-1.72669e-15 6.77842 6.78722-3.44891e-15 15.1597-3.44891e-15L47.8403 0C56.2127-3.44891e-15 63 6.77842 63 15.14L63 201.579C63 209.941 56.2127 216.72 47.8403 216.72L15.1597 216.72C6.78722 216.72 0 209.941 0 201.579Z" fill="#EEB4B3" fill-rule="evenodd"/><path d="M0 0.127491 17.7958 0 32.9574 18.9754 0 18.9754 0 0.127491Z" fill="#FFFFFF" fill-rule="evenodd" transform="matrix(-1.00129 1.22465e-16 1.22623e-16 1 70 73.9044)"/><path d="M154 325.046C154 315.963 161.372 308.601 170.466 308.601L588.534 308.601C597.628 308.601 605 315.963 605 325.046L605 432.973C605 442.056 597.628 449.418 588.534 449.418L170.466 449.418C161.372 449.418 154 442.056 154 432.973Z" fill="#EEB4B3" fill-rule="evenodd"/><path d="M149 305.605 167.972 305.878 183 324.58 149 324.58 149 305.605Z" fill="#FFFFFF" fill-rule="evenodd"/><text fill="#5AB1BB" font-family="Android Insomnia,Android Insomnia_MSFontService,sans-serif" font-weight="700" font-size="128" transform="matrix(6.12323e-17 0.997417 -1.00129 6.11532e-17 77.0428 -8)">apa</text><text fill="#7F7F7F" font-family="Android Insomnia,Android Insomnia_MSFontService,sans-serif" font-weight="700" font-size="128" transform="matrix(6.12323e-17 0.997417 -1.00129 6.11532e-17 77.0428 223)">c</text><text fill="#5AB1BB" font-family="Android Insomnia,Android Insomnia_MSFontService,sans-serif" font-weight="700" font-size="128" transform="matrix(6.12323e-17 0.997417 -1.00129 6.11532e-17 77.0428 300)">he</text><path d="M154 16.3665C154 7.32755 161.337 0 170.388 0L588.612 0C597.663-3.58401e-15 605 7.32755 605 16.3665L605 200.353C605 209.392 597.663 216.72 588.612 216.72L170.388 216.72C161.337 216.72 154 209.392 154 200.353Z" fill="#FEC601" fill-rule="evenodd"/><path d="M0 322.695C-2.2439e-15 314.911 6.31845 308.601 14.1127 308.601L48.8873 308.601C56.6815 308.601 63 314.911 63 322.695L63 435.324C63 443.108 56.6815 449.418 48.8873 449.418L14.1127 449.418C6.31845 449.418 0 443.108 0 435.324Z" fill="#2364AA" fill-rule="evenodd"/><path d="M607 301.61 606.726 320.557 588 335.566 588 301.61 607 301.61Z" fill="#FFFFFF" fill-rule="evenodd"/><text fill="#7A263A" font-family="Android Insomnia,Android Insomnia_MSFontService,sans-serif" font-weight="700" font-size="128" transform="matrix(1 0 0 0.998708 -8.10389 295)">c</text><text fill="#7F7F7F" font-family="Android Insomnia,Android Insomnia_MSFontService,sans-serif" font-weight="700" font-size="128" transform="matrix(1 0 0 0.998708 69.2721 295)">a</text><text fill="#7A263A" font-family="Android Insomnia,Android Insomnia_MSFontService,sans-serif" font-weight="700" font-size="128" transform="matrix(1 0 0 0.998708 146.481 295)">useway</text></g></svg>