<?xml version="1.0" encoding="UTF-8" standalone="no"?>
<svg
   xmlns:dc="http://purl.org/dc/elements/1.1/"
   xmlns:cc="http://creativecommons.org/ns#"
   xmlns:rdf="http://www.w3.org/1999/02/22-rdf-syntax-ns#"
   xmlns:svg="http://www.w3.org/2000/svg"
   xmlns="http://www.w3.org/2000/svg"
   id="svg928"
   version="1.1"
   viewBox="0 0 264.58333 264.58334"
   height="1000"
   width="1000">
  <defs
     id="defs922" />
  <metadata
     id="metadata925">
    <rdf:RDF>
      <cc:Work
         rdf:about="">
        <dc:format>image/svg+xml</dc:format>
        <dc:type
           rdf:resource="http://purl.org/dc/dcmitype/StillImage" />
        <dc:title></dc:title>
      </cc:Work>
    </rdf:RDF>
  </metadata>
  <g
     transform="translate(0,-32.41665)"
     id="layer1">
    <path
       id="path381-2-2-4"
       d="M 132.29135,37.977412 A 126.73073,126.73073 0 0 0 5.5607842,164.7079 126.73073,126.73073 0 0 0 132.29135,291.43918 126.73073,126.73073 0 0 0 259.02266,164.7079 126.73073,126.73073 0 0 0 132.29135,37.977412 Z m 0,18.438882 A 108.29185,108.29185 0 0 1 240.58378,164.7079 108.29185,108.29185 0 0 1 132.29135,273.00037 108.29185,108.29185 0 0 1 23.999744,164.7079 108.29185,108.29185 0 0 1 132.29135,56.416294 Z"
       style="opacity:1;fill:#000000;fill-opacity:1;stroke-width:0.40507537" />
    <path
       id="path398-7-8-5"
       d="M 215.08784,83.800123 49.495694,84.088222 120.1276,164.70867 49.495694,245.32838 215.08784,245.61659 144.41828,164.70867 Z M 89.706681,102.22067 h 84.730799 l -42.36542,48.73177 z m 42.585459,76.3717 42.36542,48.73177 H 89.925942 Z"
       style="opacity:1;fill:#000000;stroke:none;stroke-width:0.40975291px;stroke-linecap:butt;stroke-linejoin:miter;stroke-opacity:1" />
  </g>
</svg>
