<svg viewBox="0 0 3000 1300"
     xmlns="http://www.w3.org/2000/svg">
    <g id="crow"
       display="none"
       visibility="hidden">
        <path id="body"
              stroke-width="1"
              d="M 139.82,5.748
              C 127.22,5.7199 112.83,9.1168 96.113,16.965
              l 0.07813,-1.8711
              c -45.171,3.989 -61.07,7.763 -90.838,22.084 41.832,10.162 66.726,22.386 88.551,32.549
              l 0.07227,-1.75
              c 35.55,38.606 -2.2443,166.67 82.191,236.4 51.706,38.794 45.576,17.579 87.166,51.01 3.0634,6.0822 8.6609,19.304 -0.95507,43.926 -25.048,23.028 -47.377,34.83 -90.947,41.639 12.927,5.6856 20.934,6.4479 26.104,6.8125 -3.3241,3.7769 -15.633,13.242 -23.223,20.012 15.566,-1.6538 28.491,-9.674 35.766,-13.814 1.5121,5.5341 0.83389,2.7186 3.6426,14.307 6.8013,-8.6794 4.8301,-6.4799 11.215,-13.213 9.18,7.5624 16.699,8.0813 18.58,8.252 -31.552,-23.2 21.811,-40.693 45.072,-61.4
              l -3.4121,-0.4043 8.0527,-5.8262
              c 9.1532,21.392 9.8358,37.669 4.3984,43.252
              l 33.072,3.8594
              c -1.7899,-36.62 2.3175,-15.224 4.4492,-24.066 6.5926,-18.591 -2.9389,-19.512 -15.068,-43.473 13.782,9.4747 25.555,3.0872 41.336,10.379
              l -2.1797,-9.0137
              c 31.718,-1.2698 24.334,-25.928 74.805,-42.453 24.285,-1.9333 54.355,-3.2125 93.984,0 71.42,13.424 201.48,42.374 186.05,32.805
              v -9.6484
              c -25.894,-8.9966 -26.043,-12.223 -28.771,-23.156
              l -164.95,-57.891 21.1,-1.9297
              c -27.65,-26.3 -95.62,-55.33 -168.8,-82.98 -62.33,-46.98 -101.69,-60.71 -130.43,-88.77 -29.63,-40.892 -51.44,-96.738 -102.41,-96.852 z
              m 161,434.44
              c -25.255,23.335 -47.588,35.237 -91.451,42.092 12.927,5.6856 20.934,6.4479 26.104,6.8125 -3.3241,3.7769 -15.633,13.242 -23.223,20.012 15.566,-1.6538 28.491,-9.674 35.766,-13.814 1.5121,5.5341 0.8339,2.7166 3.6426,14.305 6.8013,-8.6795 4.8301,-6.4778 11.215,-13.211 9.18,7.5625 16.699,8.0812 18.58,8.252 -31.552,-23.2 21.811,-40.693 45.072,-61.4
              l -25.705,-3.0469 z"/>
        <circle id="eye"
                cx="130" cy="40" r="12"
                fill="white"/>
    </g>
    <g>
        <use href="#body" x="0" fill="#8064A2" stroke="#8064A2" fill-opacity="0.8" stroke-opacity="0.8"/>
        <use href="#eye" x="0"/>
    </g>
    <g>
        <use href="#body" x="90" fill="#4F81BD" stroke="#4F81BD" fill-opacity="0.8" stroke-opacity="0.8"/>
        <use href="#eye" x="90"/>
    </g>
    <g>
        <use href="#body" x="180" fill="#4BACC6" stroke="#4BACC6" fill-opacity="0.8" stroke-opacity="0.8"/>
        <use href="#eye" x="180"/>
    </g>
    <g>
        <use href="#body" x="270" fill="#9BBB59" stroke="#9BBB59" fill-opacity="0.8" stroke-opacity="0.8"/>
        <use href="#eye" x="270"/>
    </g>
    <g>
        <use href="#body" x="350" fill="#F79646" stroke="#F79646" fill-opacity="0.8" stroke-opacity="0.8"/>
        <use href="#eye" x="350"/>
    </g>
    <g>
        <use href="#body" x="420" fill="#C0504D" stroke="#C0504D" fill-opacity="0.8" stroke-opacity="0.8"/>
        <use href="#eye" x="420"/>
    </g>
</svg>
