<?xml version="1.0" encoding="UTF-8" standalone="yes"?>
<svg xmlns="http://www.w3.org/2000/svg" height="542.2197px" style="width:341px;height:542px;" version="1.1"
     viewBox="0 0 341 542" width="341.1899px">
    <defs>
        <filter height="300%" id="f1" width="300%" x="-1" y="-1">
            <feGaussianBlur result="blurOut" stdDeviation="1.6018306636155606"/>
            <feColorMatrix in="blurOut" result="blurOut2" type="matrix"
                           values="0 0 0 0 0 0 0 0 0 0 0 0 0 0 0 0 0 0 .4 0"/>
            <feOffset dx="3.203661327231121" dy="3.203661327231121" in="blurOut2" result="blurOut3"/>
            <feBlend in="SourceGraphic" in2="blurOut3" mode="normal"/>
        </filter>
    </defs>
    <g>
        <rect fill="#FEFECE" filter="url(#f1)" height="158.5812" rx="10.0114" ry="10.0114"
              style="stroke: #A80036; stroke-width: 1.2013729977116705;" width="84.897" x="124.5423" y="66.476"/>
        <rect fill="#FFFFFF" height="132.7142" rx="10.0114" ry="10.0114"
              style="stroke: #FFFFFF; stroke-width: 0.8009153318077803;" width="80.0915" x="126.9451" y="89.9403"/>
        <line style="stroke: #A80036; stroke-width: 1.2013729977116705;" x1="124.5423" x2="209.4394" y1="87.5375"
              y2="87.5375"/>
        <text fill="#000000" font-family="sans-serif" font-size="11.2128" lengthAdjust="spacingAndGlyphs"
              textLength="68.8787" x="132.5515" y="80.0876">NotShooting
        </text>
        <ellipse cx="170.1945" cy="108.9245" fill="#000000" filter="url(#f1)" rx="8.0092" ry="8.0092"
                 style="stroke: none; stroke-width: 0.8009153318077803;"/>
        <rect fill="#FEFECE" filter="url(#f1)" height="40.0458" rx="10.0114" ry="10.0114"
              style="stroke: #A80036; stroke-width: 1.2013729977116705;" width="40.0458" x="150.1716" y="165.7895"/>
        <line style="stroke: #A80036; stroke-width: 1.2013729977116705;" x1="150.1716" x2="190.2174" y1="186.851"
              y2="186.851"/>
        <text fill="#000000" font-family="sans-serif" font-size="11.2128" lengthAdjust="spacingAndGlyphs"
              textLength="19.222" x="160.5835" y="180.202">Idle
        </text>
        <ellipse cx="130.9497" cy="14.4165" fill="#000000" filter="url(#f1)" rx="8.0092" ry="8.0092"
                 style="stroke: none; stroke-width: 0.8009153318077803;"/>
        <rect fill="#FEFECE" filter="url(#f1)" height="254.9288" rx="10.0114" ry="10.0114"
              style="stroke: #A80036; stroke-width: 1.2013729977116705;" width="330.778" x="4.8055" y="281.9222"/>
        <rect fill="#FFFFFF" height="229.0618" rx="10.0114" ry="10.0114"
              style="stroke: #FFFFFF; stroke-width: 0.8009153318077803;" width="325.9725" x="7.2082" y="305.3865"/>
        <line style="stroke: #A80036; stroke-width: 1.2013729977116705;" x1="4.8055" x2="335.5835" y1="302.9838"
              y2="302.9838"/>
        <text fill="#000000" font-family="sans-serif" font-size="11.2128" lengthAdjust="spacingAndGlyphs"
              textLength="63.2723" x="138.5584" y="296.3348">Configuring
        </text>
        <ellipse cx="99.6074" cy="321.4048" fill="#000000" filter="url(#f1)" rx="8.0092" ry="8.0092"
                 style="stroke: none; stroke-width: 0.8009153318077803;"/>
        <rect fill="#FEFECE" filter="url(#f1)" height="40.0458" rx="10.0114" ry="10.0114"
              style="stroke: #A80036; stroke-width: 1.2013729977116705;" width="121.7391" x="38.738" y="359.0478"/>
        <line style="stroke: #A80036; stroke-width: 1.2013729977116705;" x1="38.738" x2="160.4771" y1="380.1094"
              y2="380.1094"/>
        <text fill="#000000" font-family="sans-serif" font-size="11.2128" lengthAdjust="spacingAndGlyphs"
              textLength="105.7208" x="46.7471" y="373.4604">NewValueSelection
        </text>
        <rect fill="#FEFECE" filter="url(#f1)" height="83.533" rx="10.0114" ry="10.0114"
              style="stroke: #A80036; stroke-width: 1.2013729977116705;" width="153.7757" x="22.7196" y="441.5421"/>
        <rect fill="#FFFFFF" height="57.6659" rx="10.0114" ry="10.0114"
              style="stroke: #FFFFFF; stroke-width: 0.8009153318077803;" width="148.9703" x="25.1224" y="465.0064"/>
        <line style="stroke: #A80036; stroke-width: 1.2013729977116705;" x1="22.7196" x2="176.4954" y1="462.6037"
              y2="462.6037"/>
        <text fill="#000000" font-family="sans-serif" font-size="11.2128" lengthAdjust="spacingAndGlyphs"
              textLength="96.9108" x="51.1521" y="455.9547">NewValuePreview
        </text>
        <rect fill="#FEFECE" filter="url(#f1)" height="40.0458" rx="10.0114" ry="10.0114"
              style="stroke: #A80036; stroke-width: 1.2013729977116705;" width="52.0595" x="31.5297" y="473.0156"/>
        <line style="stroke: #A80036; stroke-width: 1.2013729977116705;" x1="31.5297" x2="83.5892" y1="494.0772"
              y2="494.0772"/>
        <text fill="#000000" font-family="sans-serif" font-size="11.2128" lengthAdjust="spacingAndGlyphs"
              textLength="36.0412" x="39.5389" y="487.4282">State1
        </text>
        <rect fill="#FEFECE" filter="url(#f1)" height="40.0458" rx="10.0114" ry="10.0114"
              style="stroke: #A80036; stroke-width: 1.2013729977116705;" width="52.0595" x="98.0057" y="473.0156"/>
        <line style="stroke: #A80036; stroke-width: 1.2013729977116705;" x1="98.0057" x2="150.0652" y1="494.0772"
              y2="494.0772"/>
        <text fill="#000000" font-family="sans-serif" font-size="11.2128" lengthAdjust="spacingAndGlyphs"
              textLength="36.0412" x="106.0148" y="487.4282">State2
        </text>
        <path d="M83.7863,493.0385 C87.1027,493.0385 90.4192,493.0385 93.7356,493.0385 " fill="none"
              style="stroke: #A80036; stroke-width: 0.8009153318077803;"/>
        <polygon fill="#A80036"
                 points="97.9364,493.0385,90.7282,489.8348,93.9318,493.0385,90.7282,496.2421,97.9364,493.0385"
                 style="stroke: #A80036; stroke-width: 0.8009153318077803;"/>
        <path d="M99.6074,329.5349 C99.6074,335.9703 99.6074,345.6934 99.6074,354.7661 " fill="none"
              style="stroke: #A80036; stroke-width: 0.8009153318077803;"/>
        <polygon fill="#A80036"
                 points="99.6074,358.8748,102.8111,351.6666,99.6074,354.8703,96.4038,351.6666,99.6074,358.8748"
                 style="stroke: #A80036; stroke-width: 0.8009153318077803;"/>
        <path d="M38.681,395.1587 C30.4839,399.7568 23.1203,405.7364 17.9141,413.5101 C11.2028,423.5319 13.1695,432.9058 19.8394,441.3147 "
              fill="none" style="stroke: #A80036; stroke-width: 0.8009153318077803;"/>
        <polygon fill="#A80036"
                 points="22.5021,444.3677,20.1798,436.8292,19.8704,441.3493,15.3504,441.0399,22.5021,444.3677"
                 style="stroke: #A80036; stroke-width: 0.8009153318077803;"/>
        <text fill="#000000" font-family="sans-serif" font-size="10.4119" lengthAdjust="spacingAndGlyphs"
              textLength="62.4714" x="18.7151" y="423.9756">EvNewValue
        </text>
        <path d="M99.6074,441.5373 C99.6074,428.5104 99.6074,414.5465 99.6074,403.2071 " fill="none"
              style="stroke: #A80036; stroke-width: 0.8009153318077803;"/>
        <polygon fill="#A80036"
                 points="99.6074,399.1545,96.4038,406.3627,99.6074,403.1591,102.8111,406.3627,99.6074,399.1545"
                 style="stroke: #A80036; stroke-width: 0.8009153318077803;"/>
        <text fill="#000000" font-family="sans-serif" font-size="10.4119" lengthAdjust="spacingAndGlyphs"
              textLength="106.5217" x="100.4084" y="423.9756">EvNewValueRejected
        </text>
        <path d="M176.5938,461.4159 C203.5558,450.0784 223.7413,434.1248 208.5319,413.5101 C197.9903,399.2218 181.4602,390.8169 164.4327,385.9266 "
              fill="none" style="stroke: #A80036; stroke-width: 0.8009153318077803;"/>
        <polygon fill="#A80036"
                 points="160.5635,384.8758,166.6807,389.8559,164.4282,385.9249,168.3593,383.6724,160.5635,384.8758"
                 style="stroke: #A80036; stroke-width: 0.8009153318077803;"/>
        <text fill="#000000" font-family="sans-serif" font-size="10.4119" lengthAdjust="spacingAndGlyphs"
              textLength="94.508" x="214.1383" y="423.9756">EvNewValueSaved
        </text>
        <path d="M130.9497,22.5073 C130.9497,27.8973 130.9497,35.8195 130.9497,44.7012 C130.9497,49.142 130.9497,53.8227 130.9497,58.5467 C130.9497,60.9087 130.9497,63.2815 130.9497,65.6405 C130.9497,65.788 130.9497,65.9354 130.9497,66.0827 "
              fill="none" style="stroke: #A80036; stroke-width: 0.8009153318077803;"/>
        <polygon fill="#A80036"
                 points="130.9497,66.0827,134.1533,58.8744,130.9497,62.0781,127.746,58.8744,130.9497,66.0827"
                 style="stroke: #A80036; stroke-width: 0.8009153318077803;"/>
        <path d="M170.1945,116.9441 C170.1945,127.1037 170.1945,146.0942 170.1945,161.4405 " fill="none"
              style="stroke: #A80036; stroke-width: 0.8009153318077803;"/>
        <polygon fill="#A80036"
                 points="170.1945,165.6613,173.3982,158.4531,170.1945,161.6568,166.9908,158.4531,170.1945,165.6613"
                 style="stroke: #A80036; stroke-width: 0.8009153318077803;"/>
        <path d="M173.572,206.0291 C175.3404,217.181 177.3186,231.4733 178.2037,244.2792 C178.9525,255.1196 179.3017,266.3668 179.3538,277.6605 "
              fill="none" style="stroke: #A80036; stroke-width: 0.8009153318077803;"/>
        <polygon fill="#A80036"
                 points="179.3594,281.8229,182.5527,274.6101,179.3537,277.8183,176.1454,274.6192,179.3594,281.8229"
                 style="stroke: #A80036; stroke-width: 0.8009153318077803;"/>
        <text fill="#000000" font-family="sans-serif" font-size="10.4119" lengthAdjust="spacingAndGlyphs"
              textLength="44.0503" x="179.0046" y="254.7447">EvConfig
        </text>
        <path d="M121.0175,281.8077 C120.6034,269.0627 122.0547,256.3706 126.1442,244.2792 C130.4963,231.4125 138.9957,219.1561 147.3764,209.2768 "
              fill="none" style="stroke: #A80036; stroke-width: 0.8009153318077803;"/>
        <polygon fill="#A80036"
                 points="150.2085,206.0203,143.0614,209.3581,147.581,209.0423,147.8967,213.562,150.2085,206.0203"
                 style="stroke: #A80036; stroke-width: 0.8009153318077803;"/>
        <text fill="#000000" font-family="sans-serif" font-size="10.4119" lengthAdjust="spacingAndGlyphs"
              textLength="44.0503" x="126.9451" y="254.7447">EvConfig
        </text>
    </g>
</svg>
