<?xml version="1.0" encoding="UTF-8" standalone="no"?><svg xmlns="http://www.w3.org/2000/svg" xmlns:xlink="http://www.w3.org/1999/xlink" contentScriptType="application/ecmascript" contentStyleType="text/css" height="204px" preserveAspectRatio="none" style="width:395px;height:204px;" version="1.1" viewBox="0 0 395 204" width="395px" zoomAndPan="magnify"><defs><filter height="300%" id="f7fnutsw389h2" width="300%" x="-1" y="-1"><feGaussianBlur result="blurOut" stdDeviation="2.0"/><feColorMatrix in="blurOut" result="blurOut2" type="matrix" values="0 0 0 0 0 0 0 0 0 0 0 0 0 0 0 0 0 0 .4 0"/><feOffset dx="4.0" dy="4.0" in="blurOut2" result="blurOut3"/><feBlend in="SourceGraphic" in2="blurOut3" mode="normal"/></filter></defs><g><!--MD5=[32d581083680e78d9d4319b879b2ba2a]
class XmlSnapshotParentVm--><rect codeLine="3" fill="#FEFECE" filter="url(#f7fnutsw389h2)" height="53.1999" id="XmlSnapshotParentVm" style="stroke:#A80036;stroke-width:1.5;" width="154" x="7" y="7"/><ellipse cx="22" cy="23" fill="#ADD1B2" rx="11" ry="11" style="stroke:#A80036;stroke-width:1.0;"/><path d="M21.3594,26.7813 Q22.1563,26.7813 22.7188,26.5938 Q23.2969,26.3906 23.5313,26.1719 Q23.7813,25.9375 24.0156,25.75 Q24.2656,25.5469 24.4844,25.5469 Q24.8281,25.5469 25.0781,25.8125 Q25.3438,26.0625 25.3438,26.3906 Q25.3438,27.125 24.1719,27.8125 Q23.0156,28.4844 21.3125,28.4844 Q19.1563,28.4844 17.7344,27.2188 Q16.3125,25.9531 16.3125,24.0156 L16.3125,22.8906 Q16.3125,20.8594 17.6406,19.4844 Q18.9688,18.0938 20.9375,18.0938 Q22.125,18.0938 23.3438,18.6719 L23.5156,18.75 Q23.8125,18.3438 24.2344,18.3438 Q24.7188,18.3438 24.8906,18.6406 Q25.0781,18.9219 25.0781,19.4688 L25.0781,20.8906 Q25.0781,22.0156 24.2344,22.0156 Q23.9219,22.0156 23.7188,21.8438 Q23.5313,21.6719 23.4844,21.5313 Q23.4531,21.375 23.4063,21.1094 Q23.2969,20.5938 22.7813,20.2813 Q22.2656,19.9688 21.8125,19.8906 Q21.375,19.7969 21,19.7969 Q19.7188,19.7969 18.8594,20.6719 Q18.0156,21.5469 18.0156,22.8906 L18.0156,23.9844 Q18.0156,25.2656 18.9219,26.0313 Q19.8281,26.7813 21.3594,26.7813 Z " fill="#000000"/><text fill="#000000" font-family="sans-serif" font-size="12" lengthAdjust="spacing" textLength="122" x="36" y="27.8">XmlSnapshotParentVm</text><line style="stroke:#A80036;stroke-width:1.5;" x1="8" x2="160" y1="39" y2="39"/><text fill="#000000" font-family="sans-serif" font-size="11" lengthAdjust="spacing" textLength="51" x="13" y="53.9999">text: String</text><!--MD5=[349f8831f603c11675e85efa6ed202b4]
class XmlSnapshotChildVm--><rect codeLine="6" fill="#FEFECE" filter="url(#f7fnutsw389h2)" height="53.1999" id="XmlSnapshotChildVm" style="stroke:#A80036;stroke-width:1.5;" width="148" x="10" y="137"/><ellipse cx="25" cy="153" fill="#ADD1B2" rx="11" ry="11" style="stroke:#A80036;stroke-width:1.0;"/><path d="M24.3594,156.7813 Q25.1563,156.7813 25.7188,156.5938 Q26.2969,156.3906 26.5313,156.1719 Q26.7813,155.9375 27.0156,155.75 Q27.2656,155.5469 27.4844,155.5469 Q27.8281,155.5469 28.0781,155.8125 Q28.3438,156.0625 28.3438,156.3906 Q28.3438,157.125 27.1719,157.8125 Q26.0156,158.4844 24.3125,158.4844 Q22.1563,158.4844 20.7344,157.2188 Q19.3125,155.9531 19.3125,154.0156 L19.3125,152.8906 Q19.3125,150.8594 20.6406,149.4844 Q21.9688,148.0938 23.9375,148.0938 Q25.125,148.0938 26.3438,148.6719 L26.5156,148.75 Q26.8125,148.3438 27.2344,148.3438 Q27.7188,148.3438 27.8906,148.6406 Q28.0781,148.9219 28.0781,149.4688 L28.0781,150.8906 Q28.0781,152.0156 27.2344,152.0156 Q26.9219,152.0156 26.7188,151.8438 Q26.5313,151.6719 26.4844,151.5313 Q26.4531,151.375 26.4063,151.1094 Q26.2969,150.5938 25.7813,150.2813 Q25.2656,149.9688 24.8125,149.8906 Q24.375,149.7969 24,149.7969 Q22.7188,149.7969 21.8594,150.6719 Q21.0156,151.5469 21.0156,152.8906 L21.0156,153.9844 Q21.0156,155.2656 21.9219,156.0313 Q22.8281,156.7813 24.3594,156.7813 Z " fill="#000000"/><text fill="#000000" font-family="sans-serif" font-size="12" lengthAdjust="spacing" textLength="116" x="39" y="157.8">XmlSnapshotChildVm</text><line style="stroke:#A80036;stroke-width:1.5;" x1="11" x2="157" y1="169" y2="169"/><text fill="#000000" font-family="sans-serif" font-size="11" lengthAdjust="spacing" textLength="59" x="16" y="183.9999">value: String</text><!--MD5=[279d4049f04c3c7e87a465d3fa3578b5]
class XmlSnapshotPeerVm--><rect codeLine="9" fill="#FEFECE" filter="url(#f7fnutsw389h2)" height="53.1999" id="XmlSnapshotPeerVm" style="stroke:#A80036;stroke-width:1.5;" width="144" x="223" y="7"/><ellipse cx="238" cy="23" fill="#ADD1B2" rx="11" ry="11" style="stroke:#A80036;stroke-width:1.0;"/><path d="M237.3594,26.7813 Q238.1563,26.7813 238.7188,26.5938 Q239.2969,26.3906 239.5313,26.1719 Q239.7813,25.9375 240.0156,25.75 Q240.2656,25.5469 240.4844,25.5469 Q240.8281,25.5469 241.0781,25.8125 Q241.3438,26.0625 241.3438,26.3906 Q241.3438,27.125 240.1719,27.8125 Q239.0156,28.4844 237.3125,28.4844 Q235.1563,28.4844 233.7344,27.2188 Q232.3125,25.9531 232.3125,24.0156 L232.3125,22.8906 Q232.3125,20.8594 233.6406,19.4844 Q234.9688,18.0938 236.9375,18.0938 Q238.125,18.0938 239.3438,18.6719 L239.5156,18.75 Q239.8125,18.3438 240.2344,18.3438 Q240.7188,18.3438 240.8906,18.6406 Q241.0781,18.9219 241.0781,19.4688 L241.0781,20.8906 Q241.0781,22.0156 240.2344,22.0156 Q239.9219,22.0156 239.7188,21.8438 Q239.5313,21.6719 239.4844,21.5313 Q239.4531,21.375 239.4063,21.1094 Q239.2969,20.5938 238.7813,20.2813 Q238.2656,19.9688 237.8125,19.8906 Q237.375,19.7969 237,19.7969 Q235.7188,19.7969 234.8594,20.6719 Q234.0156,21.5469 234.0156,22.8906 L234.0156,23.9844 Q234.0156,25.2656 234.9219,26.0313 Q235.8281,26.7813 237.3594,26.7813 Z " fill="#000000"/><text fill="#000000" font-family="sans-serif" font-size="12" lengthAdjust="spacing" textLength="112" x="252" y="27.8">XmlSnapshotPeerVm</text><line style="stroke:#A80036;stroke-width:1.5;" x1="224" x2="366" y1="39" y2="39"/><text fill="#000000" font-family="sans-serif" font-size="11" lengthAdjust="spacing" textLength="59" x="229" y="53.9999">value: String</text><!--MD5=[271afbc168028cff03a9a73494351dd5]
class XmlSnapshotPeerChildVm--><rect codeLine="12" fill="#FEFECE" filter="url(#f7fnutsw389h2)" height="53.1999" id="XmlSnapshotPeerChildVm" style="stroke:#A80036;stroke-width:1.5;" width="172" x="209" y="137"/><ellipse cx="224" cy="153" fill="#ADD1B2" rx="11" ry="11" style="stroke:#A80036;stroke-width:1.0;"/><path d="M223.3594,156.7813 Q224.1563,156.7813 224.7188,156.5938 Q225.2969,156.3906 225.5313,156.1719 Q225.7813,155.9375 226.0156,155.75 Q226.2656,155.5469 226.4844,155.5469 Q226.8281,155.5469 227.0781,155.8125 Q227.3438,156.0625 227.3438,156.3906 Q227.3438,157.125 226.1719,157.8125 Q225.0156,158.4844 223.3125,158.4844 Q221.1563,158.4844 219.7344,157.2188 Q218.3125,155.9531 218.3125,154.0156 L218.3125,152.8906 Q218.3125,150.8594 219.6406,149.4844 Q220.9688,148.0938 222.9375,148.0938 Q224.125,148.0938 225.3438,148.6719 L225.5156,148.75 Q225.8125,148.3438 226.2344,148.3438 Q226.7188,148.3438 226.8906,148.6406 Q227.0781,148.9219 227.0781,149.4688 L227.0781,150.8906 Q227.0781,152.0156 226.2344,152.0156 Q225.9219,152.0156 225.7188,151.8438 Q225.5313,151.6719 225.4844,151.5313 Q225.4531,151.375 225.4063,151.1094 Q225.2969,150.5938 224.7813,150.2813 Q224.2656,149.9688 223.8125,149.8906 Q223.375,149.7969 223,149.7969 Q221.7188,149.7969 220.8594,150.6719 Q220.0156,151.5469 220.0156,152.8906 L220.0156,153.9844 Q220.0156,155.2656 220.9219,156.0313 Q221.8281,156.7813 223.3594,156.7813 Z " fill="#000000"/><text fill="#000000" font-family="sans-serif" font-size="12" lengthAdjust="spacing" textLength="140" x="238" y="157.8">XmlSnapshotPeerChildVm</text><line style="stroke:#A80036;stroke-width:1.5;" x1="210" x2="380" y1="169" y2="169"/><text fill="#000000" font-family="sans-serif" font-size="11" lengthAdjust="spacing" textLength="59" x="215" y="183.9999">value: String</text><!--MD5=[4783c4d7d908bf9a258de04d1362263e]
link XmlSnapshotParentVm to XmlSnapshotPeerVm--><path codeLine="16" d="M161.07,33.5 C179.47,33.5 199.12,33.5 217.54,33.5 " fill="none" id="XmlSnapshotParentVm-to-XmlSnapshotPeerVm" style="stroke:#A80036;stroke-width:1.0;"/><polygon fill="#A80036" points="222.7,33.5,213.7,29.5,217.7,33.5,213.7,37.5,222.7,33.5" style="stroke:#A80036;stroke-width:1.0;"/><text fill="#000000" font-family="sans-serif" font-size="13" lengthAdjust="spacing" textLength="25" x="179.5" y="27.5">peer</text><!--MD5=[3ab1ad58412e2295d19513029aae778c]
link XmlSnapshotParentVm to XmlSnapshotChildVm--><path codeLine="17" d="M84,60.1 C84,80.76 84,109.91 84,131.83 " fill="none" id="XmlSnapshotParentVm-to-XmlSnapshotChildVm" style="stroke:#A80036;stroke-width:1.0;"/><polygon fill="#A80036" points="84,136.95,88,127.95,84,131.95,80,127.95,84,136.95" style="stroke:#A80036;stroke-width:1.0;"/><text fill="#000000" font-family="sans-serif" font-size="13" lengthAdjust="spacing" textLength="45" x="88" y="104">children</text><text fill="#000000" font-family="sans-serif" font-size="13" lengthAdjust="spacing" textLength="18" x="63.6938" y="126.276">0..*</text><!--MD5=[c25236fa9f7e886231040d469e3603ce]
link XmlSnapshotPeerVm to XmlSnapshotPeerChildVm--><path codeLine="18" d="M295,60.1 C295,80.76 295,109.91 295,131.83 " fill="none" id="XmlSnapshotPeerVm-to-XmlSnapshotPeerChildVm" style="stroke:#A80036;stroke-width:1.0;"/><polygon fill="#A80036" points="295,136.95,299,127.95,295,131.95,291,127.95,295,136.95" style="stroke:#A80036;stroke-width:1.0;"/><text fill="#000000" font-family="sans-serif" font-size="13" lengthAdjust="spacing" textLength="45" x="299" y="104">children</text><text fill="#000000" font-family="sans-serif" font-size="13" lengthAdjust="spacing" textLength="18" x="274.6938" y="126.276">0..*</text><!--MD5=[f654ff9120b04c5f5ec0cf089237c88e]
@startuml
hide empty members

class XmlSnapshotParentVm {
    text: String
}
class XmlSnapshotChildVm {
    value: String
}
class XmlSnapshotPeerVm {
    value: String
}
class XmlSnapshotPeerChildVm {
    value: String
}

XmlSnapshotParentVm -r->  XmlSnapshotPeerVm : peer
XmlSnapshotParentVm -d-> "0..*" XmlSnapshotChildVm : " children"
XmlSnapshotPeerVm -d-> "0..*" XmlSnapshotPeerChildVm : " children"
@enduml

PlantUML version 1.2021.00(Sun Jan 10 10:25:05 GMT 2021)
(GPL source distribution)
Java Runtime: OpenJDK Runtime Environment
JVM: OpenJDK 64-Bit Server VM
Default Encoding: UTF-8
Language: en
Country: US
--></g></svg>