<?xml version="1.0" encoding="iso-8859-1"?>
<!-- Generator: Adobe Illustrator 19.0.0, SVG Export Plug-In . SVG Version: 6.00 Build 0)  -->
<svg version="1.1" id="Capa_1" xmlns="http://www.w3.org/2000/svg" x="0px" y="0px"
     viewBox="0 0 511.999 511.999" style="enable-background:new 0 0 511.999 511.999;" xml:space="preserve">
<path style="fill:#FC1A40;" d="M415.534,259.599l-48.6-17.701c-1.5-0.599-3.3-0.899-5.099-0.899h-311.4c-8.401,0-15,6.599-15,15v211
	c0,24.899,20.099,45,45,45h300c24.901,0,45-20.101,45-45V273.698C425.435,267.399,421.534,261.699,415.534,259.599z"/>
<path style="fill:#C60034;" d="M425.435,273.698v193.301c0,24.899-20.099,45-45,45h-150v-271h131.4c1.8,0,3.6,0.3,5.099,0.899
	l48.6,17.701C421.534,261.699,425.435,267.399,425.435,273.698z"/>
<path style="fill:#FE9923;" d="M420.035,97.788c-5.099-20.7-20.4-36.899-41.1-43.5c-20.4-6.301-42.301-1.8-58.2,12.599
	l-34.801,30.601l-6.899-45.899c-3.3-21-16.8-38.701-36.899-47.1c-3.9-1.501-7.8-2.701-11.7-3.301c-16.5-3.3-33.6,0.3-47.401,10.501
	c-18.3,13.2-27.599,35.4-24.6,57.599c3.301,22.2,18.301,41.1,39.6,48.6l32.401,11.7l39.9,14.7c0.3,0,0.3,0,0.3,0l69.3,25.499
	c6.899,2.401,14.099,3.602,20.999,3.602c14.702,0,29.101-5.402,40.501-15.601C418.235,142.788,425.435,119.687,420.035,97.788z"/>
<path style="fill:#FE8821;" d="M401.435,157.788c-11.4,10.199-25.8,15.601-40.501,15.601c-6.899,0-14.099-1.201-20.999-3.602
	l-69.3-25.499c0,0,0,0-0.3,0l-39.9-14.7V1.187c3.9,0.601,7.8,1.8,11.7,3.301c20.099,8.399,33.6,26.1,36.899,47.1l6.899,45.899
	l34.801-30.601c15.899-14.399,37.8-18.9,58.2-12.599c20.7,6.601,36,22.8,41.1,43.5C425.435,119.687,418.235,142.788,401.435,157.788
	z"/>
<path style="fill:#FF3E75;" d="M476.735,234.098l-20.4,56.4c-2.401,6-8.101,9.6-14.101,9.6c-1.8,0-3.6-0.3-5.099-0.899
	l-155.101-56.4l-14.099-46.5l-37.5,8.399l-32.999,7.5l-155.101-56.4c-7.8-2.999-11.699-11.7-9-19.2l20.7-56.398
	c3.9-11.4,12.301-20.402,23.101-25.501s23.099-5.7,34.499-1.5l118.801,43.2l8.101,2.999c0,0,32.399,58.801,33.3,58.801
	c0.601,0,13.5-7.2,26.1-14.101c12.597-6.9,25.198-14.099,25.198-14.099l126.599,46.199c11.4,4.2,20.4,12.601,25.499,23.401
	C480.335,210.398,480.934,222.699,476.735,234.098z"/>
<path style="fill:#FC1A40;" d="M476.735,234.098l-20.4,56.4c-2.401,6-8.101,9.6-14.101,9.6c-1.8,0-3.6-0.3-5.099-0.899
	l-155.101-56.4l-14.099-46.5l-37.5,8.399V96.399l8.101,2.999c0,0,32.399,58.801,33.3,58.801c0.601,0,13.5-7.2,26.1-14.101
	c12.598-6.9,25.199-14.099,25.199-14.099l126.599,46.199c11.4,4.2,20.4,12.601,25.499,23.401
	C480.335,210.398,480.934,222.699,476.735,234.098z"/>
<g>
	<path style="fill:#FCBF29;" d="M185.435,240.999v271h90v-271H185.435z"/>
	<path style="fill:#FCBF29;" d="M238.535,99.398l-8.101,22.2l-32.999,90.601l32.999,12.001l37.5,13.5l14.099,5.099l41.102-112.8
		L238.535,99.398z"/>
</g>
<g>
	<rect x="230.439" y="240.999" style="fill:#FE9923;" width="45" height="271"/>
	<polygon style="fill:#FE9923;" points="323.135,129.999 282.034,242.799 267.935,237.699 230.435,224.199 230.435,121.598 
		238.535,99.398 	"/>
</g>
<g>
</g>
<g>
</g>
<g>
</g>
<g>
</g>
<g>
</g>
<g>
</g>
<g>
</g>
<g>
</g>
<g>
</g>
<g>
</g>
<g>
</g>
<g>
</g>
<g>
</g>
<g>
</g>
<g>
</g>
</svg>
